# xmcd
#
# Track frame offsets:
# 150
# 24540
# 47810
# 72112
# 96732
# 120440
# 142457
# 166545
#
# Disc length: 2593 seconds
#
#
# Revision: 2
# Processed by: cddbd v1.5.1PL2 Copyright (c) Steve Scherf et al.
# Submitted via: FreeRIP 2.944 
#
DISCID=6f0a1f08
DTITLE=(Instrumental) - 花舞
DYEAR=1997
DGENRE=Musical
TTITLE0=如夢令
TTITLE1=花舞
TTITLE2=青春宴
TTITLE3=島嶼的黃昏
TTITLE4=千帆
TTITLE5=下午四點的漫步
TTITLE6=月來海上
TTITLE7=未央
EXTD=YEAR: 1997
EXTT0=
EXTT1=
EXTT2=
EXTT3=
EXTT4=A Thousand Sails
EXTT5=
EXTT6=
EXTT7=
PLAYORDER=
